<svg xmlns="http://www.w3.org/2000/svg" viewBox="0 0 1080 356" preserveAspectRatio="xMidYMid slice">
  <!-- Aus 2026_07_21_Di-CoCo_Webdesign.pdf (Seite 2): blaues Zitatband mit angeschnittener Bildmarke -->
  <path fill="#0032ff" d="M0.00 0.00H1080.00V356.00H0.00Z"/>
  <path fill="#000000" d="M443.43 -96.18L383.68 -154.54L258.61 -113.46C278.61 3.61 364.66 80.22 364.66 80.22C-6.75 265.64 89.57 604.76 89.57 604.76L147.47 660.80C152.45 305.88 427.25 136.11 427.25 136.11C336.72 44.96 320.99 -56.46 320.99 -56.46L443.43 -96.18"/>
  <path fill="#000000" d="M737.40 266.32C737.40 266.32 851.26 297.69 855.93 430.93L793.70 370.93C793.70 370.93 774.34 286.09 737.40 266.32"/>
  <path fill="#000000" d="M485.80 4.19C485.80 4.19 591.43 159.87 804.96 98.02C1018.49 36.18 1046.65 -200.38 1024.47 -290.10L1148.67 -328.40L1088.28 -387.00L962.86 -344.45C962.86 -344.45 1005.82 -182.41 871.33 -51.04C736.84 80.33 569.19 57.32 485.80 4.19"/>
</svg>
