<svg xmlns="http://www.w3.org/2000/svg" viewBox="0 2962 1080 298" preserveAspectRatio="xMidYMid slice">
  <!-- Aus 2026_07_21_Di-CoCo_Webdesign.pdf: blaues Zitatband mit angeschnittener Bildmarke -->
  <path fill="#0032ff" d="M0.00 2962.00H1080.00V3260.00H0.00Z"/>
  <path fill="#000000" d="M359.10 2816.82L299.34 2758.46L174.28 2799.54C194.28 2916.61 280.33 2993.22 280.33 2993.22C-91.09 3178.64 5.23 3517.76 5.23 3517.76L63.14 3573.80C68.12 3218.88 342.92 3049.11 342.92 3049.11C252.39 2957.96 236.66 2856.54 236.66 2856.54L359.10 2816.82"/>
  <path fill="#000000" d="M653.07 3179.32C653.07 3179.32 766.93 3210.69 771.60 3343.93L709.36 3283.93C709.36 3283.93 690.00 3199.09 653.07 3179.32"/>
  <path fill="#000000" d="M401.47 2917.19C401.47 2917.19 507.09 3072.87 720.62 3011.02C934.16 2949.18 962.32 2712.62 940.14 2622.90L1064.34 2584.60L1003.95 2526.00L878.52 2568.55C878.52 2568.55 921.49 2730.59 787.00 2861.96C652.51 2993.33 484.86 2970.32 401.47 2917.19"/>
</svg>
